<svg width="73" height="27" viewBox="0 0 73 27" fill="none" xmlns="http://www.w3.org/2000/svg">
<path d="M6.64 20.96H19.78V26H0.16V0.799998H6.64V20.96ZM29.8684 7.64V26H23.5684V12.5H20.8684V7.64H29.8684ZM23.5684 0.439999H29.8684V5.48H23.5684V0.439999ZM46.2597 6.92H52.9197L45.7197 26H38.5197L31.3197 6.92H37.9797L42.1197 19.88L46.2597 6.92ZM61.3909 11.06C60.4309 11.06 59.9509 11.54 59.9509 12.5V14.48H66.0709V12.5C66.0709 11.54 65.5909 11.06 64.6309 11.06H61.3909ZM71.6509 25.64C67.0189 26.12 62.8189 26.36 59.0509 26.36C57.4189 26.36 56.1109 25.868 55.1269 24.884C54.1429 23.9 53.6509 22.592 53.6509 20.96V12.32C53.6509 10.52 54.1549 9.116 55.1629 8.108C56.1949 7.076 57.6109 6.56 59.4109 6.56H66.6109C68.4109 6.56 69.8149 7.076 70.8229 8.108C71.8549 9.116 72.3709 10.52 72.3709 12.32V18.98H59.9509V20.42C59.9509 20.78 60.0709 21.08 60.3109 21.32C60.5509 21.56 60.8509 21.68 61.2109 21.68C63.5869 21.68 67.0669 21.5 71.6509 21.14V25.64Z" fill="url(#paint0_linear_629_79)"/>
<defs>
<linearGradient id="paint0_linear_629_79" x1="0.5" y1="-3.16867e-08" x2="52" y2="19.5" gradientUnits="userSpaceOnUse">
<stop stop-color="#2B9CEE"/>
<stop offset="0.775" stop-color="#C033CC"/>
</linearGradient>
</defs>
</svg>
